<?xml version="1.0" encoding="iso-8859-1"?>
<!-- Uploaded to: SVG Repo, www.svgrepo.com, Generator: SVG Repo Mixer Tools -->
<svg fill="#000000" height="800px" width="800px" version="1.1" id="Layer_1" xmlns="http://www.w3.org/2000/svg" xmlns:xlink="http://www.w3.org/1999/xlink" 
	 viewBox="0 0 512 512" xml:space="preserve">
<g>
	<g>
		<g>
			<path d="M490.667,341.333v-256c0-23.558-19.109-42.667-42.667-42.667H64c-23.558,0-42.667,19.109-42.667,42.667v256
				C9.551,341.333,0,350.885,0,362.667v64c0,23.558,19.109,42.667,42.667,42.667h426.667c23.558,0,42.667-19.109,42.667-42.667v-64
				C512,350.885,502.449,341.333,490.667,341.333z M64,85.333h384v256H320c-5.658,0-11.084,2.248-15.085,6.248l-15.085,15.085
				h-67.66l-15.085-15.085c-4.001-4.001-9.427-6.248-15.085-6.248H64V85.333z M469.333,426.667H42.667V384h140.497l15.085,15.085
				c4.001,4.001,9.427,6.248,15.085,6.248h85.333c5.658,0,11.084-2.248,15.085-6.248L328.837,384h140.497V426.667z"/>
			<path d="M163.311,175.081c-4.48,0-8.085,3.627-8.085,8.085v24.277h-32.384v-24.277c0-4.459-3.605-8.085-8.085-8.085
				c-4.48,0-8.085,3.627-8.085,8.085v64.747c0,4.459,3.605,8.085,8.085,8.085c4.48,0,8.085-3.627,8.085-8.085v-24.277h32.384v24.277
				c0,4.459,3.605,8.085,8.085,8.085c4.48,0,8.085-3.627,8.085-8.085v-64.747C171.396,178.707,167.791,175.081,163.311,175.081z"/>
			<path d="M211.868,191.273v56.64c0,4.459,3.605,8.085,8.085,8.085s8.085-3.627,8.085-8.085v-56.64h16.192
				c4.48,0,8.085-3.627,8.085-8.107c0-4.459-3.605-8.085-8.085-8.085h-48.555c-4.48,0-8.085,3.627-8.085,8.085
				c0,4.48,3.605,8.107,8.085,8.107H211.868z"/>
			<path d="M357.523,256.009h32.363c4.48,0,8.085-3.627,8.085-8.107c0-4.459-3.605-8.085-8.085-8.085h-24.277v-56.64
				c0-4.48-3.627-8.085-8.085-8.085c-4.48,0-8.107,3.605-8.107,8.085v64.725C349.417,252.382,353.043,256.009,357.523,256.009z"/>
			<path d="M276.595,256c4.48,0,8.085-3.627,8.085-8.085v-40.469l9.728,12.949c3.051,4.075,9.877,4.075,12.928,0l9.728-12.949
				v40.469c0,4.459,3.605,8.085,8.085,8.085c4.48,0,8.085-3.627,8.085-8.085v-64.747c0-3.477-2.219-6.571-5.525-7.68
				c-3.307-1.088-6.933,0.043-9.024,2.837l-17.813,23.723l-17.792-23.723c-2.091-2.795-5.717-3.925-9.045-2.837
				c-3.307,1.109-5.525,4.203-5.525,7.68v64.747C268.51,252.373,272.115,256,276.595,256z"/>
		</g>
	</g>
</g>
</svg>